<?xml version="1.0" standalone="no"?>
<!DOCTYPE svg PUBLIC "-//W3C//DTD SVG 20010904//EN"
 "http://www.w3.org/TR/2001/REC-SVG-20010904/DTD/svg10.dtd">
<svg version="1.0" xmlns="http://www.w3.org/2000/svg"
 width="16" height="16" viewBox="0 0 48.000000 48.000000"
 preserveAspectRatio="xMidYMid meet">

<g transform="translate(0.000000,48.000000) scale(0.100000,-0.100000)"
fill="#000000" stroke="none">
<path d="M72 233 l3 -128 173 -3 172 -2 0 130 0 130 -175 0 -176 0 3 -127z
m328 94 c0 -7 -22 -35 -50 -62 l-50 -49 0 42 c0 31 -4 42 -15 42 -10 0 -15
-10 -15 -27 l-1 -28 -24 28 c-36 41 -55 36 -55 -15 l0 -43 -51 52 c-29 28 -49
56 -45 62 11 17 306 15 306 -2z m-263 -89 l33 -32 -32 -33 c-18 -18 -36 -33
-40 -33 -4 0 -8 29 -8 65 0 36 3 65 7 65 4 0 22 -14 40 -32z m263 -33 c0 -36
-3 -65 -6 -65 -4 0 -22 15 -40 34 l-32 33 31 32 c17 17 35 31 39 31 5 0 8 -29
8 -65z m-137 -25 c-9 -10 -18 -12 -29 -5 -9 6 -15 13 -15 18 1 4 1 19 1 34 l0
28 28 -30 c24 -26 26 -32 15 -45z m-18 -40 c5 0 21 11 35 25 l26 25 34 -35 34
-35 -129 0 -129 0 34 35 34 35 26 -25 c14 -14 30 -25 35 -25z"/>
</g>
</svg>
